<svg width="264" height="352" viewBox="0 0 264 352" fill="none" xmlns="http://www.w3.org/2000/svg">
<rect width="264" height="352" fill="#F3F4F6"/>
<rect x="84" y="136" width="96" height="80" rx="8" fill="#D1D5DB"/>
<path d="M132 176C132 184.837 124.837 192 116 192C107.163 192 100 184.837 100 176C100 167.163 107.163 160 116 160C124.837 160 132 167.163 132 176Z" fill="#9CA3AF"/>
<path d="M164 160C172.837 160 180 167.163 180 176V192C180 200.837 172.837 208 164 208H148C139.163 208 132 200.837 132 192V176C132 167.163 139.163 160 148 160H164Z" fill="#9CA3AF"/>
</svg>
